<?xml version="1.0" encoding="UTF-8" standalone="no"?>
<!DOCTYPE svg PUBLIC "-//W3C//DTD SVG 1.1//EN" "http://www.w3.org/Graphics/SVG/1.1/DTD/svg11.dtd">
<svg width="100%" height="100%" viewBox="0 0 320 568" version="1.1" xmlns="http://www.w3.org/2000/svg" xmlns:xlink="http://www.w3.org/1999/xlink" xml:space="preserve" xmlns:serif="http://www.serif.com/" style="fill-rule:evenodd;clip-rule:evenodd;stroke-linejoin:round;stroke-miterlimit:2;">
    <rect id="_320x568" serif:id="320x568" x="0" y="0" width="320" height="568" style="fill:none;"/>
    <g id="_320x5681" serif:id="320x568">
        <g id="xs" transform="matrix(1,0,0,1,2,0)">
            <g transform="matrix(1,0,0,1,-2,0)">
                <path d="M240,142C318.372,142 240,205.628 240,284C240,362.372 318.372,426 240,426C161.628,426 18,362.372 18,284C18,205.628 161.628,142 240,142Z" style="fill:rgb(176,190,197);fill-opacity:0.25;"/>
            </g>
            <g transform="matrix(1,0,0,1,-2,0)">
                <path d="M80,142C158.372,142 302,205.628 302,284C302,362.372 158.372,426 80,426C1.628,426 80,362.372 80,284C80,205.628 1.628,142 80,142Z" style="fill:rgb(96,125,139);fill-opacity:0.25;"/>
            </g>
        </g>
    </g>
</svg>
