<?xml version="1.0" encoding="UTF-8" standalone="no"?>
<!DOCTYPE svg PUBLIC "-//W3C//DTD SVG 1.1//EN" "http://www.w3.org/Graphics/SVG/1.1/DTD/svg11.dtd">
<svg width="100%" height="100%" viewBox="0 0 568 768" version="1.1" xmlns="http://www.w3.org/2000/svg" xmlns:xlink="http://www.w3.org/1999/xlink" xml:space="preserve" xmlns:serif="http://www.serif.com/" style="fill-rule:evenodd;clip-rule:evenodd;stroke-linejoin:round;stroke-miterlimit:2;">
    <g transform="matrix(1,0,0,1,-370,0)">
        <g id="_568x768" serif:id="568x768" transform="matrix(1.775,0,0,1.35211,-286.75,0)">
            <rect x="370" y="0" width="320" height="568" style="fill:none;"/>
            <g id="sm" transform="matrix(0.761754,0,0,1,409.643,2.13163e-14)">
                <g id="sm-1" transform="matrix(-0.8875,0,0,0.8875,313.584,31.95)">
                    <path d="M69.859,124C158.166,124 320,195.694 320,284C320,372.306 158.166,444 69.859,444C-18.447,444 69.859,372.306 69.859,284C69.859,195.694 -18.447,124 69.859,124Z" style="fill:rgb(176,190,197);fill-opacity:0.25;"/>
                </g>
                <g id="sm-2" transform="matrix(-0.8875,0,0,0.8875,286.416,31.95)">
                    <path d="M250.141,124C338.447,124 250.141,195.694 250.141,284C250.141,372.306 338.447,444 250.141,444C161.834,444 0,372.306 0,284C0,195.694 161.834,124 250.141,124Z" style="fill:rgb(96,125,139);fill-opacity:0.25;"/>
                </g>
            </g>
        </g>
    </g>
</svg>
