<?xml version="1.0" encoding="UTF-8" standalone="no"?>
<!DOCTYPE svg PUBLIC "-//W3C//DTD SVG 1.1//EN" "http://www.w3.org/Graphics/SVG/1.1/DTD/svg11.dtd">
<svg width="100%" height="100%" viewBox="0 0 768 1024" version="1.1" xmlns="http://www.w3.org/2000/svg" xmlns:xlink="http://www.w3.org/1999/xlink" xml:space="preserve" xmlns:serif="http://www.serif.com/" style="fill-rule:evenodd;clip-rule:evenodd;stroke-linejoin:round;stroke-miterlimit:2;">
    <g transform="matrix(1,0,0,1,-988,0)">
        <g id="_768x1024" serif:id="768x1024" transform="matrix(1.35211,0,0,1.33333,-347.887,0)">
            <rect x="988" y="0" width="568" height="768" style="fill:none;"/>
            <g id="md" transform="matrix(1.33333,0,0,1.35211,1061.33,1.42109e-14)">
                <g id="md-1" transform="matrix(-0.8875,0,0,0.8875,313.584,31.95)">
                    <path d="M69.859,124C158.166,124 320,195.694 320,284C320,372.306 158.166,444 69.859,444C-18.447,444 69.859,372.306 69.859,284C69.859,195.694 -18.447,124 69.859,124Z" style="fill:rgb(176,190,197);fill-opacity:0.25;"/>
                </g>
                <g id="md-2" transform="matrix(-0.8875,0,0,0.8875,286.416,31.95)">
                    <path d="M250.141,124C338.447,124 250.141,195.694 250.141,284C250.141,372.306 338.447,444 250.141,444C161.834,444 0,372.306 0,284C0,195.694 161.834,124 250.141,124Z" style="fill:rgb(96,125,139);fill-opacity:0.25;"/>
                </g>
            </g>
        </g>
    </g>
</svg>
