<svg clip-rule="evenodd" fill-rule="evenodd" stroke-linejoin="round" stroke-miterlimit="2" viewBox="0 0 362 242" xmlns="http://www.w3.org/2000/svg"><g fill="#dd3b05"><path d="m181.071 2.807.07.003.07.007.069.008.069.011.068.013.068.016.066.018.066.02.065.022.064.025.064.027.062.028.061.031.06.033.058.035.058.037.056.039.055.041.054.042.052.045.05.046.049.049.048.049.046.052.044.053.042.055.041.057.038.058.037.06.035.061.033.063 117.43 234.861.029.059.026.059.024.059.022.061.02.06.018.061.016.062.014.062.012.062.01.063.008.062.006.063.004.063.002.063v.063l-.001.063-.004.062-.006.063-.008.063-.01.062-.011.062-.014.061-.016.062-.017.061-.02.06-.021.06-.024.059-.025.059-.027.058-.03.057-.031.056-.033.056-.035.055-.037.053-.038.052-.039.05-.041.049-.043.048-.044.046-.045.044-.047.043-.048.041-.049.04-.05.038-.051.037-.053.035-.053.033-.054.032-.056.029-.056.028-.057.027-.059.024-.058.023-.06.02-.06.019-.061.017-.062.015-.062.014-.063.011-.063.009-.064.007-.064.005-.065.004-.064.001h-234.862l-.064-.001-.065-.004-.064-.005-.064-.007-.063-.009-.063-.011-.062-.014-.062-.015-.061-.017-.06-.019-.06-.02-.058-.023-.059-.024-.057-.027-.056-.028-.056-.029-.054-.032-.053-.033-.053-.035-.051-.037-.05-.038-.049-.04-.048-.041-.047-.043-.045-.044-.044-.046-.043-.048-.041-.049-.039-.05-.038-.052-.037-.053-.035-.055-.033-.056-.031-.056-.03-.057-.027-.058-.025-.059-.024-.059-.021-.06-.02-.06-.017-.061-.016-.062-.014-.061-.011-.062-.01-.062-.008-.063-.006-.063-.004-.062-.001-.063v-.063l.002-.063.004-.063.006-.063.008-.062.01-.063.012-.062.014-.062.016-.062.018-.061.02-.06.022-.061.024-.059.026-.059.029-.059 117.43-234.861.033-.063.035-.061.037-.06.038-.058.041-.057.042-.055.044-.053.046-.052.048-.049.049-.049.05-.046.052-.045.054-.042.055-.041.056-.039.058-.037.058-.035.06-.033.061-.031.062-.028.064-.027.064-.025.065-.022.066-.02.066-.018.068-.016.068-.013.069-.011.069-.008.07-.007.07-.003.071-.002zm-114.266 234.86h228.389l-114.194-228.389z"/><path d="m238.097.333.065.001.065.004.064.005.063.007.064.009.062.011.063.014.061.015.061.017.061.019.059.02.059.023.058.024.057.027.057.028.055.029.055.032.053.033.053.035.051.037.05.038.049.04.048.041.046.043.046.044.044.046.042.048.041.049.04.05.038.052.037.053.035.055.033.056.031.056.029.057.028.058.025.059.024.059.021.06.02.06.017.061.016.062.013.061.012.062.01.062.008.063.005.063.004.062.002.063v.063l-.002.063-.004.063-.006.063-.008.062-.01.063-.013.062-.014.062-.016.062-.018.061-.02.06-.022.061-.024.059-.026.059-.028.059-117.43 234.861-.033.063-.035.061-.037.06-.039.058-.04.057-.042.055-.045.053-.045.052-.048.049-.049.049-.051.046-.052.045-.053.042-.055.041-.056.039-.058.037-.059.035-.06.033-.061.031-.062.028-.063.027-.064.025-.065.022-.066.02-.067.018-.067.016-.068.013-.069.011-.069.008-.07.007-.071.003-.07.002-.071-.002-.071-.003-.069-.007-.07-.008-.069-.011-.068-.013-.067-.016-.067-.018-.066-.02-.065-.022-.064-.025-.063-.027-.062-.028-.061-.031-.06-.033-.059-.035-.057-.037-.057-.039-.055-.041-.053-.042-.052-.045-.051-.046-.049-.049-.047-.049-.046-.052-.044-.053-.043-.055-.04-.057-.039-.058-.037-.06-.034-.061-.033-.063-117.431-234.861-.028-.059-.026-.059-.024-.059-.022-.061-.02-.06-.018-.061-.016-.062-.014-.062-.012-.062-.01-.063-.008-.062-.006-.063-.004-.063-.003-.063v-.063l.002-.063.004-.062.006-.063.007-.063.01-.062.012-.062.014-.061.015-.062.018-.061.019-.06.022-.06.023-.059.026-.059.027-.058.029-.057.032-.056.033-.056.035-.055.036-.053.038-.052.04-.05.041-.049.043-.048.044-.046.045-.044.046-.043.048-.041.049-.04.05-.038.052-.037.052-.035.054-.033.054-.032.056-.029.056-.028.057-.027.058-.024.059-.023.06-.02.06-.019.061-.017.062-.015.062-.014.063-.011.063-.009.064-.007.064-.005.064-.004.065-.001h234.861zm-231.625 4 114.195 228.389 114.194-228.389h-228.389z"/><path d="m358.764.333.065.001.064.004.064.005.064.007.063.009.063.011.062.014.062.015.061.017.06.019.06.02.059.023.058.024.057.027.056.028.056.029.054.032.054.033.052.035.052.037.05.038.049.04.048.041.046.043.045.044.044.046.043.048.041.049.04.05.038.052.036.053.035.055.033.056.032.056.029.057.027.058.026.059.023.059.022.06.019.06.018.061.015.062.014.061.012.062.01.062.007.063.006.063.004.062.002.063v.063l-.003.063-.004.063-.006.063-.008.062-.01.063-.012.062-.014.062-.016.062-.018.061-.02.06-.022.061-.024.059-.026.059-.028.059-117.431 234.861-.033.063-.034.061-.037.06-.039.058-.04.057-.043.055-.044.053-.046.052-.047.049-.049.049-.051.046-.052.045-.053.042-.055.041-.057.039-.057.037-.059.035-.06.033-.061.031-.062.028-.063.027-.064.025-.065.022-.066.02-.067.018-.067.016-.068.013-.069.011-.07.008-.069.007-.071.003-.071.002-.07-.002-.071-.003-.07-.007-.069-.008-.069-.011-.068-.013-.067-.016-.067-.018-.066-.02-.065-.022-.064-.025-.063-.027-.062-.028-.061-.031-.06-.033-.059-.035-.058-.037-.056-.039-.055-.041-.053-.042-.052-.045-.051-.046-.049-.049-.048-.049-.045-.052-.045-.053-.042-.055-.04-.057-.039-.058-.037-.06-.035-.061-.033-.063-117.43-234.861-.028-.059-.026-.059-.024-.059-.022-.061-.02-.06-.018-.061-.016-.062-.014-.062-.013-.062-.01-.063-.008-.062-.006-.063-.004-.063-.002-.063v-.063l.002-.063.004-.062.005-.063.008-.063.01-.062.012-.062.013-.061.016-.062.017-.061.02-.06.021-.06.024-.059.025-.059.028-.058.029-.057.031-.056.033-.056.035-.055.037-.053.038-.052.04-.05.041-.049.042-.048.044-.046.046-.044.046-.043.048-.041.049-.04.05-.038.051-.037.053-.035.053-.033.055-.032.055-.029.057-.028.057-.027.058-.024.059-.023.059-.02.061-.019.061-.017.061-.015.063-.014.062-.011.064-.009.063-.007.064-.005.065-.004.065-.001h234.861zm-231.625 4 114.194 228.389 114.195-228.389z"/></g></svg>