<svg clip-rule="evenodd" fill-rule="evenodd" stroke-linejoin="round" stroke-miterlimit="2" viewBox="0 0 352 352" xmlns="http://www.w3.org/2000/svg"><path d="m1469 80c97.14 0 182.21 211.381 182.21 308.518s-85.07 0-182.21 0-182.21 97.137-182.21 0 85.07-308.518 182.21-308.518z" fill="#607d8b" transform="matrix(.965909 0 0 -1.00088 -1242.92 432.071)"/><path d="m1469 80c97.14 0 182.21 211.381 182.21 308.518s-85.07 0-182.21 0-182.21 97.137-182.21 0 85.07-308.518 182.21-308.518z" fill="#263238" transform="matrix(.965909 0 0 1.00088 -1242.92 -80.070593)"/><path d="m1476.92 382.416c-2.39-19.716-5.6-50.205-4.93-76.867.25-10.135 1.15-19.581 3.18-27.467 1.16-4.475 2.56-8.317 5.13-10.787 2.47-2.56 6.33-3.907 10.79-5.064 7.89-2.04 17.32-3.046 27.46-3.315 26.66-.708 57.15 2.595 76.87 5.006 4.37.874 8.63-1.966 9.5-6.338.88-4.372-1.96-8.631-6.34-9.506-12.08-3.468-28.12-8.173-45.19-11.863-16.16-3.491-33.01-5.952-48.02-6.179-10.23-.155-19.63 1-27.53 3.276-8.31 2.397-15.04 6.43-20.14 11.393-4.95 5.098-8.97 11.831-11.36 20.146-2.27 7.897-3.44 17.291-3.3 27.522.16 12.145 1.73 25.495 4.26 38.723 3.91 20.399 9.7 40.206 13.78 54.488.87 4.372 5.13 7.212 9.5 6.338 4.38-.875 7.22-5.134 6.34-9.506z" fill="#eceff1" transform="matrix(0 -1 -1 0 487.0506 1700.0487)"/><path d="m1476.92 382.416c-2.39-19.716-5.6-50.205-4.93-76.867.25-10.135 1.15-19.581 3.18-27.467 1.16-4.475 2.56-8.317 5.13-10.787 2.47-2.56 6.33-3.907 10.79-5.064 7.89-2.04 17.32-3.046 27.46-3.315 26.66-.708 57.15 2.595 76.87 5.006 4.37.874 8.63-1.966 9.5-6.338.88-4.372-1.96-8.631-6.34-9.506-12.08-3.468-28.12-8.173-45.19-11.863-16.16-3.491-33.01-5.952-48.02-6.179-10.23-.155-19.63 1-27.53 3.276-8.31 2.397-15.04 6.43-20.14 11.393-4.95 5.098-8.97 11.831-11.36 20.146-2.27 7.897-3.44 17.291-3.3 27.522.16 12.145 1.73 25.495 4.26 38.723 3.91 20.399 9.7 40.206 13.78 54.488.87 4.372 5.13 7.212 9.5 6.338 4.38-.875 7.22-5.134 6.34-9.506z" fill="#e64a19" transform="translate(-1348.0544 -135.051)"/></svg>