<?xml version="1.0" encoding="UTF-8" standalone="no"?>
<!DOCTYPE svg PUBLIC "-//W3C//DTD SVG 1.1//EN" "http://www.w3.org/Graphics/SVG/1.1/DTD/svg11.dtd">
<svg width="100%" height="100%" viewBox="0 0 352 352" version="1.1" xmlns="http://www.w3.org/2000/svg" xmlns:xlink="http://www.w3.org/1999/xlink" xml:space="preserve" xmlns:serif="http://www.serif.com/" style="fill-rule:evenodd;clip-rule:evenodd;stroke-linejoin:round;stroke-miterlimit:2;">
    <g transform="matrix(1,0,0,1,-1293,-80)">
        <g transform="matrix(1,0,0,1,1213,2.84217e-14)">
            <g id="logo-dark">
                <g>
                    <g transform="matrix(0.965909,-4.283e-18,4.283e-18,-1.00088,-1162.92,512.071)">
                        <path d="M1469,80C1566.14,80 1651.21,291.381 1651.21,388.518C1651.21,485.655 1566.14,388.518 1469,388.518C1371.86,388.518 1286.79,485.655 1286.79,388.518C1286.79,291.381 1371.86,80 1469,80Z" style="fill:rgb(96,125,139);"/>
                    </g>
                    <g transform="matrix(0.965909,0,0,1.00088,-1162.92,-0.0705925)">
                        <path d="M1469,80C1566.14,80 1651.21,291.381 1651.21,388.518C1651.21,485.655 1566.14,388.518 1469,388.518C1371.86,388.518 1286.79,485.655 1286.79,388.518C1286.79,291.381 1371.86,80 1469,80Z" style="fill:rgb(38,50,56);"/>
                    </g>
                </g>
                <g transform="matrix(1,1.11022e-16,-1.11022e-16,1,-51.6844,-92.5013)">
                    <g transform="matrix(-1.72255e-16,-1,-1,1.72255e-16,618.735,1872.55)">
                        <path d="M1476.92,382.416C1474.53,362.7 1471.32,332.211 1471.99,305.549C1472.24,295.414 1473.14,285.968 1475.17,278.082C1476.33,273.607 1477.73,269.765 1480.3,267.295C1482.77,264.735 1486.63,263.388 1491.09,262.231C1498.98,260.191 1508.41,259.185 1518.55,258.916C1545.21,258.208 1575.7,261.511 1595.42,263.922C1599.79,264.796 1604.05,261.956 1604.92,257.584C1605.8,253.212 1602.96,248.953 1598.58,248.078C1586.5,244.61 1570.46,239.905 1553.39,236.215C1537.23,232.724 1520.38,230.263 1505.37,230.036C1495.14,229.881 1485.74,231.036 1477.84,233.312C1469.53,235.709 1462.8,239.742 1457.7,244.705C1452.75,249.803 1448.73,256.536 1446.34,264.851C1444.07,272.748 1442.9,282.142 1443.04,292.373C1443.2,304.518 1444.77,317.868 1447.3,331.096C1451.21,351.495 1457,371.302 1461.08,385.584C1461.95,389.956 1466.21,392.796 1470.58,391.922C1474.96,391.047 1477.8,386.788 1476.92,382.416Z" style="fill:rgb(236,239,241);"/>
                    </g>
                    <g transform="matrix(1,-1.11022e-16,1.11022e-16,1,-1216.37,37.4503)">
                        <path d="M1476.92,382.416C1474.53,362.7 1471.32,332.211 1471.99,305.549C1472.24,295.414 1473.14,285.968 1475.17,278.082C1476.33,273.607 1477.73,269.765 1480.3,267.295C1482.77,264.735 1486.63,263.388 1491.09,262.231C1498.98,260.191 1508.41,259.185 1518.55,258.916C1545.21,258.208 1575.7,261.511 1595.42,263.922C1599.79,264.796 1604.05,261.956 1604.92,257.584C1605.8,253.212 1602.96,248.953 1598.58,248.078C1586.5,244.61 1570.46,239.905 1553.39,236.215C1537.23,232.724 1520.38,230.263 1505.37,230.036C1495.14,229.881 1485.74,231.036 1477.84,233.312C1469.53,235.709 1462.8,239.742 1457.7,244.705C1452.75,249.803 1448.73,256.536 1446.34,264.851C1444.07,272.748 1442.9,282.142 1443.04,292.373C1443.2,304.518 1444.77,317.868 1447.3,331.096C1451.21,351.495 1457,371.302 1461.08,385.584C1461.95,389.956 1466.21,392.796 1470.58,391.922C1474.96,391.047 1477.8,386.788 1476.92,382.416Z" style="fill:rgb(230,74,25);"/>
                    </g>
                </g>
            </g>
        </g>
    </g>
</svg>
