<?xml version="1.0" encoding="UTF-8" standalone="no"?>
<!DOCTYPE svg PUBLIC "-//W3C//DTD SVG 1.1//EN" "http://www.w3.org/Graphics/SVG/1.1/DTD/svg11.dtd">
<svg width="100%" height="100%" viewBox="0 0 284 272" version="1.1" xmlns="http://www.w3.org/2000/svg" xmlns:xlink="http://www.w3.org/1999/xlink" xml:space="preserve" xmlns:serif="http://www.serif.com/" style="fill-rule:evenodd;clip-rule:evenodd;stroke-linejoin:round;stroke-miterlimit:2;">
    <g transform="matrix(1,0,0,1,-732,-120)">
        <g transform="matrix(1,0,0,1,612,0)">
            <g id="logo-dark">
                <g id="a" transform="matrix(1,0,0,-1,0,528)">
                    <path d="M130.054,250.458C138.896,253.334 153.201,257.796 167.622,260.906C176.092,262.732 184.587,264.142 192,264.01C199.247,264.17 207.282,262.88 215.193,261.119C229.061,258.031 242.523,253.434 250.813,250.509C253.843,249.301 257.284,250.782 258.491,253.813C259.699,256.843 258.218,260.284 255.187,261.491C246.776,265.237 233.168,271.387 218.87,275.515C209.795,278.135 200.446,279.803 192,279.99C183.454,279.838 173.652,278.176 164.026,275.505C149.239,271.404 134.87,265.267 125.946,261.542C122.887,260.409 121.324,257.005 122.458,253.946C123.591,250.887 126.995,249.324 130.054,250.458Z" style="fill:#263238;"/>
                </g>
                <path id="an" d="M253.689,138.065C252.212,139.504 250.448,141.361 248.977,143.304C239.886,155.314 228.21,176.574 215.482,202.242C187.351,258.968 154.366,336.952 133.509,386.295C132.242,389.336 128.745,390.776 125.705,389.509C122.664,388.242 121.224,384.745 122.491,381.705C146.242,323.876 185.997,227.044 215.967,170.097C225.625,151.747 234.378,137.453 241.253,129.584C246.833,123.198 252.227,120.643 256,120.629C259.893,120.615 263.938,122.71 266.366,128.647C268.18,133.084 269.3,141.141 269.564,151.85C270.79,201.521 256.212,314.962 257.947,362.313C258.043,364.942 258.342,367.722 258.682,370.188C260.655,367.384 262.938,363.915 264.878,360.368C290.492,313.541 334.005,196.183 360.302,146.947C365.536,137.148 370.231,129.891 373.972,125.988C377.661,122.14 381.291,120.797 384,120.808C388.875,120.827 394.176,124.291 397.149,133.084C400.075,141.735 401.677,157.036 402.081,176.394C403.277,233.612 394.952,327.818 389.948,384.496C389.674,387.778 386.787,390.221 383.504,389.948C380.222,389.674 377.779,386.787 378.052,383.504C381.296,342.097 386.101,280.568 387.77,228.265C388.85,194.394 388.644,164.45 385.709,146.638C385.188,143.475 384.155,140.155 383.321,137.796C381.023,140.871 377.394,146.002 374.528,151.309C349.155,198.292 306.326,315.965 280.283,365.363C275.06,375.269 270.343,382.595 266.591,386.548C262.718,390.629 258.859,391.996 256,391.999C251.902,391.997 247.6,389.841 245.072,383.58C243.26,379.096 242.137,370.966 241.921,360.161C240.926,310.464 256.093,197.047 254.579,149.668C254.43,144.99 254.194,141.058 253.689,138.065Z" style="fill:#263238;"/>
                <g id="bmrng-1" transform="matrix(0.991445,0.130526,-0.130526,0.991445,63.64,25.5396)">
                    <path d="M112.585,93.075C106.631,91.651 96.807,89.287 89.088,89.37C83.911,89.426 79.627,90.796 77.174,93.174C74.795,95.626 73.422,99.91 73.365,105.088C73.281,112.808 75.65,122.631 77.075,128.585C77.398,130.199 78.971,131.248 80.585,130.925C82.199,130.602 83.248,129.029 82.925,127.415C82.146,122.553 80.98,114.991 80.957,108.38C80.948,105.86 81.127,103.501 81.603,101.534C81.874,100.416 82.194,99.448 82.826,98.826C83.447,98.192 84.414,97.867 85.532,97.596C87.499,97.12 89.86,96.95 92.38,96.96C98.991,96.988 106.553,98.147 111.415,98.925C113.029,99.248 114.602,98.199 114.925,96.585C115.248,94.971 114.199,93.398 112.585,93.075Z" style="fill:#263238;"/>
                </g>
                <g id="bmrng-2" transform="matrix(1,0,0,1,50.8168,34.8168)">
                    <path d="M112.585,93.075C106.631,91.651 96.807,89.287 89.088,89.37C83.911,89.426 79.627,90.796 77.174,93.174C74.795,95.626 73.422,99.91 73.365,105.088C73.281,112.808 75.65,122.631 77.075,128.585C77.398,130.199 78.971,131.248 80.585,130.925C82.199,130.602 83.248,129.029 82.925,127.415C82.146,122.553 80.98,114.991 80.957,108.38C80.948,105.86 81.127,103.501 81.603,101.534C81.874,100.416 82.194,99.448 82.826,98.826C83.447,98.192 84.414,97.867 85.532,97.596C87.499,97.12 89.86,96.95 92.38,96.96C98.991,96.988 106.553,98.147 111.415,98.925C113.029,99.248 114.602,98.199 114.925,96.585C115.248,94.971 114.199,93.398 112.585,93.075Z" style="fill:#e64a19;"/>
                </g>
            </g>
        </g>
    </g>
</svg>
