<svg clip-rule="evenodd" fill-rule="evenodd" stroke-linejoin="round" stroke-miterlimit="2" viewBox="0 0 284 272" xmlns="http://www.w3.org/2000/svg"><g transform="translate(-120 -120)"><g fill="#263238"><path d="m130.054 250.458c8.842 2.876 23.147 7.338 37.568 10.448 8.47 1.826 16.965 3.236 24.378 3.104 7.247.16 15.282-1.13 23.193-2.891 13.868-3.088 27.33-7.685 35.62-10.61 3.03-1.208 6.471.273 7.678 3.304 1.208 3.03-.273 6.471-3.304 7.678-8.411 3.746-22.019 9.896-36.317 14.024-9.075 2.62-18.424 4.288-26.87 4.475-8.546-.152-18.348-1.814-27.974-4.485-14.787-4.101-29.156-10.238-38.08-13.963-3.059-1.133-4.622-4.537-3.488-7.596 1.133-3.059 4.537-4.622 7.596-3.488z" transform="matrix(1 0 0 -1 0 528)"/><path d="m253.689 138.065c-1.477 1.439-3.241 3.296-4.712 5.239-9.091 12.01-20.767 33.27-33.495 58.938-28.131 56.726-61.116 134.71-81.973 184.053-1.267 3.041-4.764 4.481-7.804 3.214-3.041-1.267-4.481-4.764-3.214-7.804 23.751-57.829 63.506-154.661 93.476-211.608 9.658-18.35 18.411-32.644 25.286-40.513 5.58-6.386 10.974-8.941 14.747-8.955 3.893-.014 7.938 2.081 10.366 8.018 1.814 4.437 2.934 12.494 3.198 23.203 1.226 49.671-13.352 163.112-11.617 210.463.096 2.629.395 5.409.735 7.875 1.973-2.804 4.256-6.273 6.196-9.82 25.614-46.827 69.127-164.185 95.424-213.421 5.234-9.799 9.929-17.056 13.67-20.959 3.689-3.848 7.319-5.191 10.028-5.18 4.875.019 10.176 3.483 13.149 12.276 2.926 8.651 4.528 23.952 4.932 43.31 1.196 57.218-7.129 151.424-12.133 208.102-.274 3.282-3.161 5.725-6.444 5.452-3.282-.274-5.725-3.161-5.452-6.444 3.244-41.407 8.049-102.936 9.718-155.239 1.08-33.871.874-63.815-2.061-81.627-.521-3.163-1.554-6.483-2.388-8.842-2.298 3.075-5.927 8.206-8.793 13.513-25.373 46.983-68.202 164.656-94.245 214.054-5.223 9.906-9.94 17.232-13.692 21.185-3.873 4.081-7.732 5.448-10.591 5.451-4.098-.002-8.4-2.158-10.928-8.419-1.812-4.484-2.935-12.614-3.151-23.419-.995-49.697 14.172-163.114 12.658-210.493-.149-4.678-.385-8.61-.89-11.603z"/><path d="m112.585 93.075c-5.954-1.424-15.778-3.788-23.497-3.705-5.177.056-9.461 1.426-11.914 3.804-2.379 2.452-3.752 6.736-3.809 11.914-.084 7.72 2.285 17.543 3.71 23.497.323 1.614 1.896 2.663 3.51 2.34s2.663-1.896 2.34-3.51c-.779-4.862-1.945-12.424-1.968-19.035-.009-2.52.17-4.879.646-6.846.271-1.118.591-2.086 1.223-2.708.621-.634 1.588-.959 2.706-1.23 1.967-.476 4.328-.646 6.848-.636 6.611.028 14.173 1.187 19.035 1.965 1.614.323 3.187-.726 3.51-2.34s-.726-3.187-2.34-3.51z" transform="matrix(.991445 .130526 -.130526 .991445 63.64 25.5396)"/></g><path d="m112.585 93.075c-5.954-1.424-15.778-3.788-23.497-3.705-5.177.056-9.461 1.426-11.914 3.804-2.379 2.452-3.752 6.736-3.809 11.914-.084 7.72 2.285 17.543 3.71 23.497.323 1.614 1.896 2.663 3.51 2.34s2.663-1.896 2.34-3.51c-.779-4.862-1.945-12.424-1.968-19.035-.009-2.52.17-4.879.646-6.846.271-1.118.591-2.086 1.223-2.708.621-.634 1.588-.959 2.706-1.23 1.967-.476 4.328-.646 6.848-.636 6.611.028 14.173 1.187 19.035 1.965 1.614.323 3.187-.726 3.51-2.34s-.726-3.187-2.34-3.51z" fill="#e64a19" transform="translate(50.8168 34.8168)"/></g></svg>