<svg clip-rule="evenodd" fill-rule="evenodd" stroke-linejoin="round" stroke-miterlimit="2" viewBox="0 0 352 352" xmlns="http://www.w3.org/2000/svg"><path d="m1469 80c97.137 0 182.212 211.381 182.212 308.518s-85.075 0-182.212 0-182.212 97.137-182.212 0 85.075-308.518 182.212-308.518z" fill="#263238" fill-opacity=".25" transform="matrix(.965909 0 0 -1.00088 -1242.92 432.071)"/><path d="m1469 80c97.137 0 182.212 211.381 182.212 308.518s-85.075 0-182.212 0-182.212 97.137-182.212 0 85.075-308.518 182.212-308.518z" fill="#3e2723" fill-opacity=".25" transform="matrix(.965909 0 0 1.00088 -1242.92 -80.070593)"/><path d="m1476.92 382.416c-2.393-19.716-5.601-50.205-4.935-76.867.253-10.135 1.154-19.581 3.188-27.467 1.155-4.475 2.551-8.317 5.12-10.787 2.475-2.56 6.331-3.907 10.799-5.064 7.888-2.04 17.319-3.046 27.458-3.315 26.66-.708 57.151 2.595 76.864 5.006 4.372.874 8.631-1.966 9.506-6.338.874-4.372-1.966-8.631-6.338-9.506-12.089-3.468-28.12-8.173-45.194-11.863-16.157-3.491-33.011-5.952-48.017-6.179-10.233-.155-19.632 1-27.531 3.276-8.316 2.397-15.047 6.43-20.137 11.393-4.953 5.098-8.973 11.831-11.366 20.146-2.273 7.897-3.436 17.291-3.301 27.522.159 12.145 1.736 25.495 4.266 38.723 3.902 20.399 9.693 40.206 13.774 54.488.875 4.372 5.134 7.212 9.506 6.338 4.372-.875 7.212-5.134 6.338-9.506z" fill="#455a64" transform="translate(-1328.0544 -115.051)"/><path d="m1476.92 382.416c-2.393-19.716-5.601-50.205-4.935-76.867.253-10.135 1.154-19.581 3.188-27.467 1.155-4.475 2.551-8.317 5.12-10.787 2.475-2.56 6.331-3.907 10.799-5.064 7.888-2.04 17.319-3.046 27.458-3.315 26.66-.708 57.151 2.595 76.864 5.006 4.372.874 8.631-1.966 9.506-6.338.874-4.372-1.966-8.631-6.338-9.506-12.089-3.468-28.12-8.173-45.194-11.863-16.157-3.491-33.011-5.952-48.017-6.179-10.233-.155-19.632 1-27.531 3.276-8.316 2.397-15.047 6.43-20.137 11.393-4.953 5.098-8.973 11.831-11.366 20.146-2.273 7.897-3.436 17.291-3.301 27.522.159 12.145 1.736 25.495 4.266 38.723 3.902 20.399 9.693 40.206 13.774 54.488.875 4.372 5.134 7.212 9.506 6.338 4.372-.875 7.212-5.134 6.338-9.506z" fill="#b0bec5" transform="matrix(0 -1 -1 0 467.0506 1680.0487)"/></svg>