<svg clip-rule="evenodd" fill-rule="evenodd" stroke-linejoin="round" stroke-miterlimit="2" viewBox="0 0 360 360" xmlns="http://www.w3.org/2000/svg"><g fill="#455a64"><path d="m1469 77.039c20.2-.049 39.96 8.65 58.58 23.541 21.36 17.09 41.28 42.372 58.69 71.578 41.43 69.496 68.74 161.193 68.85 216.36.05 26.048-6.37 39.006-16.41 44.162-5.96 3.061-13.41 3.552-22.15 2.046-15.66-2.699-35.92-11.899-59.07-21.122-26.45-10.539-56.81-21.11-88.49-21.093-31.68-.014-62.03 10.564-88.49 21.101-23.15 9.221-43.41 18.408-59.08 21.109-8.74 1.506-16.18 1.02-22.14-2.04-5.58-2.865-10.02-7.973-12.84-16.24-2.33-6.825-3.6-15.964-3.57-27.923.11-55.167 27.42-146.86 68.86-216.357 17.41-29.206 37.31-54.493 58.68-71.583 18.62-14.891 38.38-23.589 58.58-23.539zm0 5.922c-18.84.046-37.15 8.432-54.45 22.404-20.75 16.763-39.98 41.549-56.84 70.1-40.45 68.535-67.12 158.783-67.01 213.053.02 10.929 1.12 19.285 3.28 25.515 2.05 5.949 5.02 9.788 9.05 11.842 4.57 2.331 10.3 2.385 16.98 1.215 15.23-2.664 34.87-11.775 57.37-20.782 27.37-10.954 58.83-21.769 91.62-21.783 32.79.017 64.25 10.839 91.61 21.79 22.51 9.006 42.15 18.105 57.38 20.77 6.69 1.17 12.41 1.121 16.98-1.208 4.03-2.053 7.01-5.892 9.06-11.842 2.15-6.23 3.25-14.588 3.27-25.517.11-54.27-26.57-144.514-67.02-213.05-16.85-28.552-36.08-53.341-56.83-70.105-17.3-13.973-35.61-22.357-54.45-22.402z" transform="matrix(.965909 0 0 -1.00088 -1238.92 436.071)"/><path d="m1469 77.039c-20.2-.05-39.96 8.647-58.58 23.539-21.37 17.09-41.27 42.377-58.68 71.583-41.44 69.497-68.75 161.19-68.86 216.357-.03 11.96 1.24 21.098 3.57 27.923 2.82 8.267 7.26 13.375 12.84 16.24 5.96 3.06 13.4 3.546 22.14 2.04 15.67-2.701 35.93-11.888 59.08-21.109 26.46-10.537 56.81-21.115 88.49-21.101 31.68-.017 62.04 10.554 88.49 21.093 23.15 9.223 43.41 18.423 59.07 21.122 8.74 1.506 16.19 1.015 22.15-2.046 10.04-5.156 16.46-18.114 16.41-44.162-.11-55.167-27.42-146.864-68.85-216.36-17.41-29.206-37.33-54.488-58.69-71.578-18.62-14.891-38.38-23.59-58.58-23.541zm0 5.922c18.84.045 37.15 8.429 54.45 22.402 20.75 16.763 39.98 41.553 56.83 70.105 40.45 68.536 67.13 158.78 67.02 213.05-.02 10.929-1.12 19.287-3.27 25.517-2.05 5.95-5.03 9.789-9.06 11.842-4.57 2.329-10.29 2.378-16.98 1.208-15.23-2.665-34.87-11.764-57.38-20.77-27.36-10.951-58.82-21.773-91.61-21.79-32.79.014-64.25 10.829-91.62 21.783-22.5 9.007-42.14 18.118-57.37 20.782-6.68 1.17-12.41 1.116-16.98-1.215-4.03-2.054-7-5.893-9.05-11.842-2.16-6.23-3.26-14.587-3.28-25.515-.11-54.27 26.56-144.518 67.01-213.053 16.86-28.551 36.09-53.337 56.84-70.1 17.3-13.972 35.61-22.358 54.45-22.404z" transform="matrix(.965909 0 0 1.00088 -1238.92 -76.070593)"/><path d="m1476.92 382.416c-2.39-19.716-5.6-50.205-4.93-76.867.25-10.135 1.15-19.581 3.18-27.467 1.16-4.475 2.56-8.317 5.13-10.787 2.47-2.56 6.33-3.907 10.79-5.064 7.89-2.04 17.32-3.046 27.46-3.315 26.66-.708 57.15 2.595 76.87 5.006 4.37.874 8.63-1.966 9.5-6.338.88-4.372-1.96-8.631-6.34-9.506-12.08-3.468-28.12-8.173-45.19-11.863-16.16-3.491-33.01-5.952-48.02-6.179-10.23-.155-19.63 1-27.53 3.276-8.31 2.397-15.04 6.43-20.14 11.393-4.95 5.098-8.97 11.831-11.36 20.146-2.27 7.897-3.44 17.291-3.3 27.522.16 12.145 1.73 25.495 4.26 38.723 3.91 20.399 9.7 40.206 13.78 54.488.87 4.372 5.13 7.212 9.5 6.338 4.38-.875 7.22-5.134 6.34-9.506z" transform="translate(-1324.0544 -111.051)"/></g><path d="m1476.92 382.416c-2.39-19.716-5.6-50.205-4.93-76.867.25-10.135 1.15-19.581 3.18-27.467 1.16-4.475 2.56-8.317 5.13-10.787 2.47-2.56 6.33-3.907 10.79-5.064 7.89-2.04 17.32-3.046 27.46-3.315 26.66-.708 57.15 2.595 76.87 5.006 4.37.874 8.63-1.966 9.5-6.338.88-4.372-1.96-8.631-6.34-9.506-12.08-3.468-28.12-8.173-45.19-11.863-16.16-3.491-33.01-5.952-48.02-6.179-10.23-.155-19.63 1-27.53 3.276-8.31 2.397-15.04 6.43-20.14 11.393-4.95 5.098-8.97 11.831-11.36 20.146-2.27 7.897-3.44 17.291-3.3 27.522.16 12.145 1.73 25.495 4.26 38.723 3.91 20.399 9.7 40.206 13.78 54.488.87 4.372 5.13 7.212 9.5 6.338 4.38-.875 7.22-5.134 6.34-9.506z" fill="#e64a19" transform="matrix(0 -1 -1 0 471.0506 1684.0487)"/><path d="m1450.22 344.886c2.95 3.431 10.79 5.18 23.31 4.566-.69-8.547-1.23-17.506-1.48-26.393-6.4-1.353-18.81-1.946-26.4-1.486.49 3.169 1.05 6.35 1.65 9.523.89 4.647 1.88 9.263 2.92 13.79z" fill="#455a64" transform="translate(-1324.0544 -111.051)"/></svg>