<?xml version="1.0" encoding="UTF-8" standalone="no"?>
<!DOCTYPE svg PUBLIC "-//W3C//DTD SVG 1.1//EN" "http://www.w3.org/Graphics/SVG/1.1/DTD/svg11.dtd">
<svg width="100%" height="100%" viewBox="0 0 352 352" version="1.1" xmlns="http://www.w3.org/2000/svg" xmlns:xlink="http://www.w3.org/1999/xlink" xml:space="preserve" xmlns:serif="http://www.serif.com/" style="fill-rule:evenodd;clip-rule:evenodd;stroke-linejoin:round;stroke-miterlimit:2;">
    <g transform="matrix(1,0,0,1,-1293,-80)">
        <g transform="matrix(1,0,0,1,1213,2.84217e-14)">
            <g id="logo-dark">
                <g>
                    <g transform="matrix(0.965909,-4.283e-18,4.283e-18,-1.00088,-1162.92,512.071)">
                        <path d="M1469,80c97.137,0 182.212,211.381 182.212,308.518c0,97.137 -85.075,0 -182.212,0c-97.137,0 -182.212,97.137 -182.212,0c0,-97.137 85.075,-308.518 182.212,-308.518Z" style="fill:#263238;fill-opacity:0.25;"/>
                    </g>
                    <g transform="matrix(0.965909,0,0,1.00088,-1162.92,-0.0705925)">
                        <path d="M1469,80c97.137,0 182.212,211.381 182.212,308.518c0,97.137 -85.075,0 -182.212,0c-97.137,0 -182.212,97.137 -182.212,0c0,-97.137 85.075,-308.518 182.212,-308.518Z" style="fill:#3e2723;fill-opacity:0.25;"/>
                    </g>
                </g>
                <g transform="matrix(1,1.11022e-16,-1.11022e-16,1,-51.6844,-92.5013)">
                    <g transform="matrix(1,-1.11022e-16,1.11022e-16,1,-1196.37,57.4503)">
                        <path d="M1476.92,382.416c-2.393,-19.716 -5.601,-50.205 -4.935,-76.867c0.253,-10.135 1.154,-19.581 3.188,-27.467c1.155,-4.475 2.551,-8.317 5.12,-10.787c2.475,-2.56 6.331,-3.907 10.799,-5.064c7.888,-2.04 17.319,-3.046 27.458,-3.315c26.66,-0.708 57.151,2.595 76.864,5.006c4.372,0.874 8.631,-1.966 9.506,-6.338c0.874,-4.372 -1.966,-8.631 -6.338,-9.506c-12.089,-3.468 -28.12,-8.173 -45.194,-11.863c-16.157,-3.491 -33.011,-5.952 -48.017,-6.179c-10.233,-0.155 -19.632,1 -27.531,3.276c-8.316,2.397 -15.047,6.43 -20.137,11.393c-4.953,5.098 -8.973,11.831 -11.366,20.146c-2.273,7.897 -3.436,17.291 -3.301,27.522c0.159,12.145 1.736,25.495 4.266,38.723c3.902,20.399 9.693,40.206 13.774,54.488c0.875,4.372 5.134,7.212 9.506,6.338c4.372,-0.875 7.212,-5.134 6.338,-9.506Z" style="fill:#455a64;"/>
                    </g>
                    <g transform="matrix(-1.72255e-16,-1,-1,1.72255e-16,598.735,1852.55)">
                        <path d="M1476.92,382.416c-2.393,-19.716 -5.601,-50.205 -4.935,-76.867c0.253,-10.135 1.154,-19.581 3.188,-27.467c1.155,-4.475 2.551,-8.317 5.12,-10.787c2.475,-2.56 6.331,-3.907 10.799,-5.064c7.888,-2.04 17.319,-3.046 27.458,-3.315c26.66,-0.708 57.151,2.595 76.864,5.006c4.372,0.874 8.631,-1.966 9.506,-6.338c0.874,-4.372 -1.966,-8.631 -6.338,-9.506c-12.089,-3.468 -28.12,-8.173 -45.194,-11.863c-16.157,-3.491 -33.011,-5.952 -48.017,-6.179c-10.233,-0.155 -19.632,1 -27.531,3.276c-8.316,2.397 -15.047,6.43 -20.137,11.393c-4.953,5.098 -8.973,11.831 -11.366,20.146c-2.273,7.897 -3.436,17.291 -3.301,27.522c0.159,12.145 1.736,25.495 4.266,38.723c3.902,20.399 9.693,40.206 13.774,54.488c0.875,4.372 5.134,7.212 9.506,6.338c4.372,-0.875 7.212,-5.134 6.338,-9.506Z" style="fill:#e64a19;"/>
                    </g>
                </g>
            </g>
        </g>
    </g>
</svg>
